<?xml version="1.0" encoding="UTF-8" standalone="no"?>
<!DOCTYPE svg PUBLIC "-//W3C//DTD SVG 1.1//EN" "http://www.w3.org/Graphics/SVG/1.1/DTD/svg11.dtd">
<svg width="100%" height="100%" viewBox="0 0 1000 660" version="1.1" xmlns="http://www.w3.org/2000/svg" xmlns:xlink="http://www.w3.org/1999/xlink" xml:space="preserve" xmlns:serif="http://www.serif.com/" style="fill-rule:evenodd;clip-rule:evenodd;stroke-linejoin:round;stroke-miterlimit:2;">
    <g transform="matrix(1.00015,0,0,0.819873,5.07364,14.414)">
        <rect x="-5.073" y="-17.581" width="999.855" height="805.003" style="fill:white;"/>
    </g>
    <g transform="matrix(0.190948,0,0,-0.190948,50.0468,781.485)">
        <path d="M2604,3810C2570,3797 2531,3742 2515,3687C2507,3658 2497,3570 2493,3490L2485,3346L2450,3338C2431,3334 2363,3326 2300,3320C2237,3314 2156,3302 2122,3294C2087,3285 2052,3281 2045,3284C2037,3287 2022,3322 2010,3362C1999,3402 1984,3455 1977,3480C1948,3581 1911,3510 1911,3352L1910,3249L1876,3235C1846,3222 1662,3157 1618,3143C1606,3139 1597,3148 1585,3171C1541,3265 1482,3365 1470,3365C1434,3365 1435,3258 1472,3152C1485,3114 1490,3086 1484,3081C1479,3076 1412,3038 1335,2995C1258,2952 1187,2912 1177,2906C1157,2894 1163,2888 1064,3018C1034,3057 1004,3090 998,3090C977,3090 996,2983 1028,2917C1046,2882 1060,2848 1060,2842C1060,2817 765,2572 724,2564C686,2557 618,2605 590,2660C561,2716 540,2713 540,2653C540,2620 548,2591 565,2561C579,2537 587,2513 583,2509C573,2499 434,2464 347,2449C266,2436 245,2414 256,2355C261,2325 273,2312 329,2273C529,2131 576,2095 650,2028C694,1988 730,1950 730,1943C730,1937 721,1916 709,1898C603,1728 581,1669 615,1640C627,1630 646,1643 725,1716C843,1825 845,1826 867,1799C877,1787 927,1728 978,1669C1028,1609 1070,1554 1070,1546C1070,1539 1056,1515 1039,1494C980,1420 953,1346 966,1296C975,1258 999,1266 1035,1321C1067,1371 1153,1450 1174,1450C1181,1450 1207,1433 1231,1412C1255,1391 1310,1349 1353,1320C1440,1261 1440,1263 1405,1170C1379,1099 1386,967 1415,988C1421,992 1444,1034 1468,1081C1492,1129 1522,1178 1536,1190L1560,1213L1632,1180C1672,1162 1711,1143 1718,1137C1726,1131 1730,1094 1730,1019L1730,910L1763,911C1839,913 1844,919 1852,999C1855,1039 1861,1074 1865,1078C1873,1086 2836,1091 2863,1084C2875,1080 2880,1068 2880,1041C2880,1020 2883,982 2886,956L2893,910L2936,910C2959,910 2990,914 3004,919C3028,929 3028,930 3023,1024L3017,1118L3103,1159C3151,1182 3193,1200 3198,1200C3217,1200 3261,1141 3289,1077C3321,1007 3340,989 3365,1010C3386,1028 3384,1072 3356,1179C3342,1230 3334,1278 3336,1285C3339,1292 3358,1309 3378,1323C3398,1336 3448,1375 3488,1409C3528,1442 3565,1470 3571,1470C3594,1470 3670,1414 3722,1357C3786,1287 3805,1288 3802,1360C3800,1410 3783,1451 3732,1530C3709,1564 3694,1598 3696,1605C3699,1612 3755,1668 3821,1730C3923,1825 3944,1841 3965,1836C3978,1833 4029,1792 4078,1745C4127,1698 4173,1660 4179,1660C4185,1660 4190,1676 4190,1697C4190,1735 4139,1840 4094,1893C4081,1909 4070,1928 4070,1935C4070,1953 4151,2007 4308,2095C4447,2173 4466,2196 4458,2275C4450,2343 4436,2353 4373,2339C4345,2332 4311,2330 4296,2334C4265,2342 4264,2355 4285,2450C4293,2486 4299,2536 4300,2563C4300,2634 4277,2624 4244,2538C4215,2465 4162,2400 4131,2400C4113,2400 3986,2471 3958,2497C3933,2519 3936,2566 3965,2644C4014,2775 3990,2794 3892,2700C3803,2614 3800,2615 3661,2754C3566,2850 3548,2872 3553,2892C3556,2904 3568,2947 3581,2987C3603,3060 3601,3110 3576,3110C3569,3110 3538,3079 3509,3041C3479,3002 3447,2971 3438,2971C3429,2970 3372,3001 3313,3039C3254,3077 3192,3117 3175,3127C3142,3148 3142,3146 3155,3286C3160,3341 3159,3373 3151,3388C3136,3416 3122,3416 3110,3388C3104,3375 3095,3358 3090,3350C3084,3342 3069,3309 3055,3277C3041,3245 3023,3217 3015,3214C3007,3210 2985,3215 2966,3224C2947,3233 2929,3240 2925,3240C2922,3240 2896,3250 2869,3261L2820,3282L2820,3484C2820,3659 2817,3690 2801,3727C2769,3797 2673,3838 2604,3810ZM2706,3694C2721,3672 2725,3624 2732,3382C2744,2987 2762,2787 2796,2680C2820,2604 2824,2576 2828,2416C2830,2309 2828,2234 2822,2228C2816,2222 2803,2227 2785,2243C2757,2266 2757,2267 2773,2299C2797,2347 2804,2396 2789,2405C2781,2410 2764,2398 2741,2371C2700,2324 2682,2320 2645,2354C2631,2367 2610,2384 2599,2392C2577,2406 2575,2423 2586,2488C2595,2542 2575,2587 2552,2568C2544,2561 2529,2537 2519,2514C2510,2491 2497,2469 2491,2465C2485,2462 2456,2466 2428,2476C2389,2489 2356,2491 2289,2488C2190,2482 2184,2485 2157,2553C2131,2613 2118,2600 2122,2519L2125,2448L2061,2409C1977,2357 1968,2358 1877,2422C1852,2440 1835,2414 1854,2385C1898,2317 1898,2324 1855,2280C1792,2216 1784,2222 1777,2343C1772,2415 1761,2476 1740,2544C1703,2664 1701,2724 1732,2757C1759,2786 1808,2787 1844,2759C1859,2747 1893,2705 1921,2664C1964,2600 1975,2590 2000,2590C2044,2590 2039,2614 1975,2722C1943,2775 1920,2826 1920,2843C1920,2883 1963,2920 2009,2920C2062,2920 2102,2887 2173,2785C2231,2701 2238,2695 2270,2695C2316,2695 2319,2715 2280,2777C2215,2882 2211,2940 2268,2973C2335,3012 2387,2975 2476,2824C2539,2718 2571,2687 2597,2712C2611,2726 2611,2739 2596,2841C2586,2904 2574,3050 2568,3165C2548,3562 2575,3720 2661,3720C2681,3720 2695,3712 2706,3694ZM2474,3148C2488,3025 2478,3005 2424,3046C2391,3072 2379,3075 2313,3075C2239,3075 2239,3075 2201,3034L2163,2992L2109,3002C2079,3007 2029,3010 1998,3008C1933,3003 1901,2981 1869,2918C1852,2886 1845,2880 1803,2875C1678,2857 1623,2793 1633,2677C1636,2643 1651,2563 1665,2500C1690,2394 1693,2360 1700,2070C1706,1820 1711,1743 1724,1696C1744,1629 1806,1502 1844,1451C1858,1432 1870,1413 1870,1409C1870,1405 1853,1400 1833,1398L1795,1395L1792,1332C1790,1287 1785,1267 1774,1263C1749,1254 1631,1299 1526,1357C1336,1464 1187,1601 1007,1834C888,1989 760,2121 632,2223C576,2268 531,2311 532,2318C534,2325 568,2345 608,2361C731,2410 838,2480 1050,2649C1199,2768 1444,2921 1573,2975C1629,2998 1697,3027 1724,3039C1884,3109 2250,3198 2386,3199L2467,3200L2474,3148ZM3075,3034C3302,2923 3343,2892 3725,2537C3887,2387 3975,2325 4093,2276C4148,2254 4195,2230 4197,2224C4199,2217 4184,2202 4163,2189C4048,2121 3885,1985 3760,1856C3541,1629 3459,1548 3390,1492C3230,1361 2955,1211 2927,1239C2921,1245 2918,1273 2919,1301C2921,1378 2915,1390 2872,1390C2808,1390 2805,1398 2839,1486C2884,1603 2897,1674 2914,1895C2932,2127 2922,2536 2896,2649C2875,2739 2835,3092 2843,3113C2853,3139 2882,3129 3075,3034ZM2450,2391C2477,2381 2523,2355 2552,2334C2640,2271 2818,2111 2825,2089C2834,2062 2820,2043 2703,1924C2645,1865 2584,1813 2554,1797C2437,1736 2297,1723 2184,1764C2095,1797 2030,1843 1898,1969C1799,2064 1787,2078 1793,2102C1811,2171 2128,2370 2275,2403C2324,2414 2403,2409 2450,2391ZM1875,1884C1919,1848 1965,1810 1977,1800C1996,1784 1998,1774 1993,1726C1986,1660 1995,1656 2042,1700C2059,1717 2075,1730 2078,1730C2081,1730 2113,1717 2149,1700C2185,1684 2234,1666 2257,1660C2293,1651 2300,1644 2311,1612C2317,1592 2327,1567 2332,1557C2346,1529 2368,1553 2376,1605C2382,1648 2384,1650 2434,1666C2462,1675 2511,1696 2542,1711C2616,1748 2633,1747 2666,1705C2714,1642 2735,1666 2705,1750C2697,1773 2693,1798 2698,1805C2706,1819 2789,1890 2797,1890C2808,1890 2790,1725 2771,1645C2760,1601 2733,1526 2709,1478L2668,1390L2042,1390L2000,1438C1935,1510 1885,1588 1837,1691C1800,1769 1791,1799 1786,1868C1782,1913 1782,1950 1787,1950C1792,1950 1832,1920 1875,1884ZM2778,1275C2786,1272 2790,1259 2788,1243L2785,1215L2366,1212C2037,1210 1945,1212 1938,1222C1927,1240 1928,1278 1940,1282C1955,1287 2763,1280 2778,1275Z" style="fill-rule:nonzero;"/>
        <path d="M2247,2336C2172,2309 2095,2229 2069,2153C2044,2076 2083,1918 2138,1873C2211,1813 2243,1800 2315,1800C2407,1800 2469,1822 2521,1872C2660,2007 2620,2243 2445,2326C2388,2353 2307,2357 2247,2336ZM2386,2295C2516,2257 2596,2127 2560,2014C2510,1856 2325,1784 2203,1876C2185,1889 2157,1930 2139,1966C2039,2169 2179,2357 2386,2295Z" style="fill-rule:nonzero;"/>
        <path d="M2284,2176C2217,2147 2190,2068 2224,2001C2256,1940 2335,1922 2398,1960C2475,2007 2467,2134 2383,2174C2343,2193 2325,2194 2284,2176ZM2370,2135C2438,2100 2407,1981 2330,1980C2273,1980 2228,2046 2249,2099C2269,2147 2319,2161 2370,2135Z" style="fill-rule:nonzero;"/>
    </g>
</svg>
